# Blender v2.72 (sub 0) OBJ File: ''
# www.blender.org
o Cylinder
v 0.000000 -1.000000 -1.000000
v 0.000000 1.000000 -1.000000
v 0.098017 -1.000000 -0.995185
v 0.098017 1.000000 -0.995185
v 0.195090 -1.000000 -0.980785
v 0.195090 1.000000 -0.980785
v 0.290285 -1.000000 -0.956940
v 0.290285 1.000000 -0.956940
v 0.382683 -1.000000 -0.923880
v 0.382683 1.000000 -0.923880
v 0.471397 -1.000000 -0.881921
v 0.471397 1.000000 -0.881921
v 0.555570 -1.000000 -0.831470
v 0.555570 1.000000 -0.831470
v 0.634393 -1.000000 -0.773010
v 0.634393 1.000000 -0.773010
v 0.707107 -1.000000 -0.707107
v 0.707107 1.000000 -0.707107
v 0.773010 -1.000000 -0.634393
v 0.773010 1.000000 -0.634393
v 0.831470 -1.000000 -0.555570
v 0.831470 1.000000 -0.555570
v 0.881921 -1.000000 -0.471397
v 0.881921 1.000000 -0.471397
v 0.923880 -1.000000 -0.382683
v 0.923880 1.000000 -0.382683
v 0.956940 -1.000000 -0.290285
v 0.956940 1.000000 -0.290285
v 0.980785 -1.000000 -0.195090
v 0.980785 1.000000 -0.195090
v 0.995185 -1.000000 -0.098017
v 0.995185 1.000000 -0.098017
v 1.000000 -1.000000 0.000000
v 1.000000 1.000000 0.000000
v 0.995185 -1.000000 0.098017
v 0.995185 1.000000 0.098017
v 0.980785 -1.000000 0.195091
v 0.980785 1.000000 0.195091
v 0.956940 -1.000000 0.290285
v 0.956940 1.000000 0.290285
v 0.923879 -1.000000 0.382684
v 0.923879 1.000000 0.382684
v 0.881921 -1.000000 0.471397
v 0.881921 1.000000 0.471397
v 0.831469 -1.000000 0.555571
v 0.831469 1.000000 0.555571
v 0.773010 -1.000000 0.634394
v 0.773010 1.000000 0.634394
v 0.707106 -1.000000 0.707107
v 0.707106 1.000000 0.707107
v 0.634393 -1.000000 0.773011
v 0.634393 1.000000 0.773011
v 0.555570 -1.000000 0.831470
v 0.555570 1.000000 0.831470
v 0.471396 -1.000000 0.881922
v 0.471396 1.000000 0.881922
v 0.382683 -1.000000 0.923880
v 0.382683 1.000000 0.923880
v 0.290284 -1.000000 0.956941
v 0.290284 1.000000 0.956941
v 0.195090 -1.000000 0.980785
v 0.195090 1.000000 0.980785
v 0.098016 -1.000000 0.995185
v 0.098016 1.000000 0.995185
v -0.000001 -1.000000 1.000000
v -0.000001 1.000000 1.000000
v -0.098018 -1.000000 0.995185
v -0.098018 1.000000 0.995185
v -0.195091 -1.000000 0.980785
v -0.195091 1.000000 0.980785
v -0.290286 -1.000000 0.956940
v -0.290286 1.000000 0.956940
v -0.382684 -1.000000 0.923879
v -0.382684 1.000000 0.923879
v -0.471398 -1.000000 0.881921
v -0.471398 1.000000 0.881921
v -0.555571 -1.000000 0.831469
v -0.555571 1.000000 0.831469
v -0.634394 -1.000000 0.773010
v -0.634394 1.000000 0.773010
v -0.707108 -1.000000 0.707106
v -0.707108 1.000000 0.707106
v -0.773011 -1.000000 0.634393
v -0.773011 1.000000 0.634393
v -0.831470 -1.000000 0.555570
v -0.831470 1.000000 0.555570
v -0.881922 -1.000000 0.471396
v -0.881922 1.000000 0.471396
v -0.923880 -1.000000 0.382683
v -0.923880 1.000000 0.382683
v -0.956940 -1.000000 0.290285
v -0.956940 1.000000 0.290285
v -0.980785 -1.000000 0.195090
v -0.980785 1.000000 0.195090
v -0.995185 -1.000000 0.098017
v -0.995185 1.000000 0.098017
v -1.000000 -1.000000 0.000000
v -1.000000 1.000000 0.000000
v -0.995185 -1.000000 -0.098016
v -0.995185 1.000000 -0.098016
v -0.980785 -1.000000 -0.195089
v -0.980785 1.000000 -0.195089
v -0.956941 -1.000000 -0.290284
v -0.956941 1.000000 -0.290284
v -0.923880 -1.000000 -0.382682
v -0.923880 1.000000 -0.382682
v -0.881922 -1.000000 -0.471395
v -0.881922 1.000000 -0.471395
v -0.831471 -1.000000 -0.555569
v -0.831471 1.000000 -0.555569
v -0.773012 -1.000000 -0.634392
v -0.773012 1.000000 -0.634392
v -0.707108 -1.000000 -0.707105
v -0.707108 1.000000 -0.707105
v -0.634395 -1.000000 -0.773009
v -0.634395 1.000000 -0.773009
v -0.555572 -1.000000 -0.831468
v -0.555572 1.000000 -0.831468
v -0.471399 -1.000000 -0.881920
v -0.471399 1.000000 -0.881920
v -0.382686 -1.000000 -0.923878
v -0.382686 1.000000 -0.923878
v -0.290288 -1.000000 -0.956939
v -0.290288 1.000000 -0.956939
v -0.195093 -1.000000 -0.980785
v -0.195093 1.000000 -0.980785
v -0.098021 -1.000000 -0.995184
v -0.098021 1.000000 -0.995184
vt 1.000000 0.000000
vt 1.000000 1.000000
vt 0.000000 1.000000
vt 0.000000 0.000000
vt 0.059039 0.735698
vt 1.000000 0.500000
vt 0.000000 0.500000
vt 0.500000 1.000000
vt 0.500000 0.000000
vt 0.308657 0.961939
vt 0.450990 0.997592
vt 0.402453 0.990392
vt 0.354856 0.978470
vt 0.597545 0.009607
vt 0.450991 0.002408
vt 0.264300 0.940960
vt 0.146446 0.853553
vt 0.084265 0.777784
vt 0.113494 0.817196
vt 0.009607 0.597545
vt 0.021530 0.645142
vt 0.038060 0.691341
vt 0.002408 0.549008
vt 0.009607 0.402455
vt 0.002408 0.450991
vt 0.113494 0.182804
vt 0.021530 0.354858
vt 0.182802 0.886505
vt 0.222214 0.084265
vt 0.182803 0.113495
vt 0.146446 0.146447
vt 0.308658 0.038060
vt 0.264301 0.059040
vt 0.402454 0.009607
vt 0.354857 0.021530
vt 0.549008 0.002408
vt 0.853553 0.146446
vt 0.645142 0.021530
vt 0.777785 0.084265
vt 0.735698 0.059039
vt 0.691341 0.038060
vt 0.817196 0.113495
vt 0.915735 0.222215
vt 0.886505 0.182803
vt 0.961940 0.308658
vt 0.940961 0.264301
vt 0.978470 0.354858
vt 0.990393 0.402455
vt 0.997592 0.450991
vt 0.961940 0.691342
vt 0.997592 0.549008
vt 0.978470 0.645142
vt 0.990393 0.597545
vt 0.915735 0.777785
vt 0.940961 0.735698
vt 0.853553 0.853553
vt 0.886505 0.817197
vt 0.735698 0.940961
vt 0.817197 0.886505
vt 0.597545 0.990393
vt 0.645142 0.978470
vt 0.691342 0.961940
vt 0.549009 0.997592
vt 0.222214 0.915734
vt 0.059039 0.264302
vt 0.084265 0.222215
vt 0.038060 0.308658
vt 0.777785 0.915735
vn 0.000000 0.696200 -0.717800
vn 0.070300 0.696200 -0.714300
vn 0.070300 -0.696200 -0.714300
vn 0.140000 0.696200 -0.704000
vn 0.140000 -0.696200 -0.704000
vn 0.208300 0.696200 -0.686900
vn 0.208300 -0.696200 -0.686900
vn 0.274700 0.696200 -0.663200
vn 0.274700 -0.696200 -0.663200
vn 0.338400 0.696200 -0.633000
vn 0.338400 -0.696200 -0.633000
vn 0.398800 0.696200 -0.596800
vn 0.398800 -0.696200 -0.596800
vn 0.455400 0.696200 -0.554900
vn 0.455400 -0.696200 -0.554900
vn 0.507600 0.696200 -0.507600
vn 0.507600 -0.696200 -0.507600
vn 0.554900 0.696200 -0.455400
vn 0.554900 -0.696200 -0.455400
vn 0.596800 0.696200 -0.398800
vn 0.633000 0.696200 -0.338400
vn 0.633000 -0.696200 -0.338400
vn 0.663200 0.696200 -0.274700
vn 0.663200 -0.696200 -0.274700
vn 0.686900 0.696200 -0.208300
vn 0.686900 -0.696200 -0.208300
vn 0.704000 0.696200 -0.140000
vn 0.704000 -0.696200 -0.140000
vn 0.714300 0.696200 -0.070300
vn 0.717800 0.696200 0.000000
vn 0.717800 -0.696200 0.000000
vn 0.714300 0.696200 0.070300
vn 0.714300 -0.696200 0.070300
vn 0.704000 0.696200 0.140000
vn 0.686900 0.696200 0.208300
vn 0.686900 -0.696200 0.208300
vn 0.663200 0.696200 0.274700
vn 0.663200 -0.696200 0.274700
vn 0.633000 0.696200 0.338400
vn 0.633000 -0.696200 0.338400
vn 0.596800 0.696200 0.398800
vn 0.596800 -0.696200 0.398800
vn 0.554900 0.696200 0.455400
vn 0.554900 -0.696200 0.455400
vn 0.507600 0.696200 0.507600
vn 0.507600 -0.696200 0.507600
vn 0.455400 0.696200 0.554900
vn 0.455400 -0.696200 0.554900
vn 0.398800 0.696200 0.596800
vn 0.398800 -0.696200 0.596800
vn 0.338400 0.696200 0.633000
vn 0.338400 -0.696200 0.633000
vn 0.274700 0.696200 0.663200
vn 0.274700 -0.696200 0.663200
vn 0.208300 0.696200 0.686900
vn 0.140000 0.696200 0.704000
vn 0.140000 -0.696200 0.704000
vn 0.070300 0.696200 0.714300
vn 0.070300 -0.696200 0.714300
vn 0.000000 0.696200 0.717800
vn 0.000000 -0.696200 0.717800
vn -0.070300 0.696200 0.714300
vn -0.140000 0.696200 0.704000
vn -0.140000 -0.696200 0.704000
vn -0.208300 0.696200 0.686900
vn -0.208300 -0.696200 0.686900
vn -0.274700 0.696200 0.663200
vn -0.274700 -0.696200 0.663200
vn -0.338400 0.696200 0.633000
vn -0.338400 -0.696200 0.633000
vn -0.398800 0.696200 0.596800
vn -0.398800 -0.696200 0.596800
vn -0.455400 0.696200 0.554900
vn -0.455400 -0.696200 0.554900
vn -0.507600 0.696200 0.507600
vn -0.507600 -0.696200 0.507600
vn -0.554900 0.696200 0.455400
vn -0.554900 -0.696200 0.455400
vn -0.596800 0.696200 0.398800
vn -0.596800 -0.696200 0.398800
vn -0.633000 0.696200 0.338400
vn -0.633000 -0.696200 0.338400
vn -0.663200 0.696200 0.274700
vn -0.663200 -0.696200 0.274700
vn -0.686900 0.696200 0.208300
vn -0.686900 -0.696200 0.208300
vn -0.704000 0.696200 0.140000
vn -0.704000 -0.696200 0.140000
vn -0.714300 0.696200 0.070300
vn -0.714300 -0.696200 0.070300
vn -0.717800 0.696200 0.000000
vn -0.717800 -0.696200 0.000000
vn -0.714300 0.696200 -0.070300
vn -0.714300 -0.696200 -0.070300
vn -0.704000 0.696200 -0.140000
vn -0.704000 -0.696200 -0.140000
vn -0.686900 0.696200 -0.208300
vn -0.686900 -0.696200 -0.208300
vn -0.663200 0.696200 -0.274700
vn -0.663200 -0.696200 -0.274700
vn -0.633000 0.696200 -0.338400
vn -0.633000 -0.696200 -0.338400
vn -0.596800 0.696200 -0.398800
vn -0.596800 -0.696200 -0.398800
vn -0.554900 0.696200 -0.455400
vn -0.554900 -0.696200 -0.455400
vn -0.507600 0.696200 -0.507600
vn -0.507600 -0.696200 -0.507600
vn -0.455400 0.696200 -0.554900
vn -0.455400 -0.696200 -0.554900
vn -0.398800 0.696200 -0.596800
vn -0.398800 -0.696200 -0.596800
vn -0.338400 0.696200 -0.633000
vn -0.338400 -0.696200 -0.633000
vn -0.274700 0.696200 -0.663200
vn -0.274700 -0.696200 -0.663200
vn -0.208300 0.696200 -0.686900
vn -0.208300 -0.696200 -0.686900
vn -0.140000 0.696200 -0.704000
vn -0.140000 -0.696200 -0.704000
vn -0.070300 0.696200 -0.714300
vn 0.000000 -0.696200 -0.717800
vn -0.070300 -0.696200 -0.714300
vn 0.596800 -0.696200 -0.398800
vn 0.714300 -0.696200 -0.070300
vn 0.704000 -0.696200 0.140000
vn 0.208300 -0.696200 0.686900
vn -0.070300 -0.696200 0.714300
s 1
f 2/1/1 4/2/2 3/3/3
f 4/1/2 6/2/4 5/3/5
f 6/1/4 8/2/6 7/3/7
f 8/1/6 10/2/8 9/3/9
f 10/1/8 12/2/10 11/3/11
f 12/1/10 14/2/12 13/3/13
f 14/1/12 16/2/14 15/3/15
f 16/1/14 18/2/16 17/3/17
f 17/4/17 18/1/16 20/2/18
f 19/4/19 20/1/18 22/2/20
f 22/1/20 24/2/21 23/3/22
f 24/1/21 26/2/23 25/3/24
f 26/1/23 28/2/25 27/3/26
f 28/1/25 30/2/27 29/3/28
f 29/4/28 30/1/27 32/2/29
f 32/1/29 34/2/30 33/3/31
f 34/1/30 36/2/32 35/3/33
f 35/4/33 36/1/32 38/2/34
f 38/1/34 40/2/35 39/3/36
f 40/1/35 42/2/37 41/3/38
f 42/1/37 44/2/39 43/3/40
f 44/1/39 46/2/41 45/3/42
f 46/1/41 48/2/43 47/3/44
f 48/1/43 50/2/45 49/3/46
f 50/1/45 52/2/47 51/3/48
f 52/1/47 54/2/49 53/3/50
f 54/1/49 56/2/51 55/3/52
f 56/1/51 58/2/53 57/3/54
f 57/4/54 58/1/53 60/2/55
f 60/1/55 62/2/56 61/3/57
f 62/1/56 64/2/58 63/3/59
f 63/4/59 64/1/58 66/2/60
f 65/4/61 66/1/60 68/2/62
f 68/1/62 70/2/63 69/3/64
f 70/1/63 72/2/65 71/3/66
f 72/1/65 74/2/67 73/3/68
f 74/1/67 76/2/69 75/3/70
f 76/1/69 78/2/71 77/3/72
f 78/1/71 80/2/73 79/3/74
f 80/1/73 82/2/75 81/3/76
f 82/1/75 84/2/77 83/3/78
f 84/1/77 86/2/79 85/3/80
f 86/1/79 88/2/81 87/3/82
f 88/1/81 90/2/83 89/3/84
f 90/1/83 92/2/85 91/3/86
f 92/1/85 94/2/87 93/3/88
f 94/1/87 96/2/89 95/3/90
f 96/1/89 98/2/91 97/3/92
f 98/1/91 100/2/93 99/3/94
f 100/1/93 102/2/95 101/3/96
f 102/1/95 104/2/97 103/3/98
f 104/1/97 106/2/99 105/3/100
f 106/1/99 108/2/101 107/3/102
f 108/1/101 110/2/103 109/3/104
f 110/1/103 112/2/105 111/3/106
f 112/1/105 114/2/107 113/3/108
f 114/1/107 116/2/109 115/3/110
f 116/1/109 118/2/111 117/3/112
f 118/1/111 120/2/113 119/3/114
f 120/1/113 122/2/115 121/3/116
f 122/1/115 124/2/117 123/3/118
f 124/1/117 126/2/119 125/3/120
f 26/5/23 100/6/93 36/7/32
f 128/1/121 2/2/1 1/3/122
f 126/1/119 128/2/121 127/3/123
f 1/8/122 33/6/31 65/9/61
f 1/4/122 2/1/1 3/3/3
f 3/4/3 4/1/2 5/3/5
f 5/4/5 6/1/4 7/3/7
f 7/4/7 8/1/6 9/3/9
f 9/4/9 10/1/8 11/3/11
f 11/4/11 12/1/10 13/3/13
f 13/4/13 14/1/12 15/3/15
f 15/4/15 16/1/14 17/3/17
f 19/3/19 17/4/17 20/2/18
f 21/3/124 19/4/19 22/2/20
f 21/4/124 22/1/20 23/3/22
f 23/4/22 24/1/21 25/3/24
f 25/4/24 26/1/23 27/3/26
f 27/4/26 28/1/25 29/3/28
f 31/3/125 29/4/28 32/2/29
f 31/4/125 32/1/29 33/3/31
f 33/4/31 34/1/30 35/3/33
f 37/3/126 35/4/33 38/2/34
f 37/4/126 38/1/34 39/3/36
f 39/4/36 40/1/35 41/3/38
f 41/4/38 42/1/37 43/3/40
f 43/4/40 44/1/39 45/3/42
f 45/4/42 46/1/41 47/3/44
f 47/4/44 48/1/43 49/3/46
f 49/4/46 50/1/45 51/3/48
f 51/4/48 52/1/47 53/3/50
f 53/4/50 54/1/49 55/3/52
f 55/4/52 56/1/51 57/3/54
f 59/3/127 57/4/54 60/2/55
f 59/4/127 60/1/55 61/3/57
f 61/4/57 62/1/56 63/3/59
f 65/3/61 63/4/59 66/2/60
f 67/3/128 65/4/61 68/2/62
f 67/4/128 68/1/62 69/3/64
f 69/4/64 70/1/63 71/3/66
f 71/4/66 72/1/65 73/3/68
f 73/4/68 74/1/67 75/3/70
f 75/4/70 76/1/69 77/3/72
f 77/4/72 78/1/71 79/3/74
f 79/4/74 80/1/73 81/3/76
f 81/4/76 82/1/75 83/3/78
f 83/4/78 84/1/77 85/3/80
f 85/4/80 86/1/79 87/3/82
f 87/4/82 88/1/81 89/3/84
f 89/4/84 90/1/83 91/3/86
f 91/4/86 92/1/85 93/3/88
f 93/4/88 94/1/87 95/3/90
f 95/4/90 96/1/89 97/3/92
f 97/4/92 98/1/91 99/3/94
f 99/4/94 100/1/93 101/3/96
f 101/4/96 102/1/95 103/3/98
f 103/4/98 104/1/97 105/3/100
f 105/4/100 106/1/99 107/3/102
f 107/4/102 108/1/101 109/3/104
f 109/4/104 110/1/103 111/3/106
f 111/4/106 112/1/105 113/3/108
f 113/4/108 114/1/107 115/3/110
f 115/4/110 116/1/109 117/3/112
f 117/4/112 118/1/111 119/3/114
f 119/4/114 120/1/113 121/3/116
f 121/4/116 122/1/115 123/3/118
f 123/4/118 124/1/117 125/3/120
f 4/8/2 12/10/10 6/11/4
f 8/12/6 6/11/4 10/13/8
f 72/14/65 68/9/62 66/15/60
f 14/16/12 12/10/10 20/17/18
f 24/18/21 22/19/20 20/17/18
f 24/18/21 12/10/10 26/5/23
f 32/20/29 30/21/27 28/22/25
f 36/7/32 34/23/30 32/20/29
f 40/24/35 38/25/34 36/7/32
f 40/24/35 50/26/45 42/27/37
f 18/28/16 14/16/12 20/17/18
f 6/11/4 12/10/10 10/13/8
f 56/29/51 54/30/49 52/31/47
f 60/32/55 58/33/53 56/29/51
f 64/34/58 62/35/56 60/32/55
f 64/34/58 72/14/65 66/15/60
f 72/14/65 70/36/63 68/9/62
f 72/14/65 84/37/77 74/38/67
f 80/39/73 78/40/71 76/41/69
f 84/37/77 82/42/75 80/39/73
f 88/43/81 86/44/79 84/37/77
f 92/45/85 90/46/83 88/43/81
f 92/45/85 100/6/93 94/47/87
f 96/48/89 94/47/87 98/49/91
f 100/6/93 108/50/101 102/51/95
f 108/50/101 106/52/99 104/53/97
f 112/54/105 110/55/103 108/50/101
f 116/56/109 114/57/107 112/54/105
f 116/56/109 122/58/115 118/59/111
f 122/58/115 116/56/109 128/60/121
f 128/60/121 126/61/119 124/62/117
f 4/8/2 2/63/1 128/60/121
f 64/34/58 60/32/55 56/29/51
f 18/28/16 16/64/14 14/16/12
f 20/17/18 12/10/10 24/18/21
f 28/22/25 26/5/23 32/20/29
f 52/31/47 50/26/45 72/14/65
f 50/26/45 46/65/41 42/27/37
f 52/31/47 72/14/65 56/29/51
f 50/26/45 48/66/43 46/65/41
f 72/14/65 64/34/58 56/29/51
f 84/37/77 80/39/73 76/41/69
f 92/45/85 88/43/81 84/37/77
f 108/50/101 104/53/97 102/51/95
f 94/47/87 100/6/93 98/49/91
f 116/56/109 112/54/105 108/50/101
f 26/5/23 36/7/32 32/20/29
f 124/62/117 122/58/115 128/60/121
f 127/4/123 128/1/121 1/3/122
f 26/5/23 12/10/10 4/8/2
f 46/65/41 44/67/39 42/27/37
f 125/4/120 126/1/119 127/3/123
f 72/14/65 100/6/93 84/37/77
f 100/6/93 92/45/85 84/37/77
f 116/56/109 108/50/101 100/6/93
f 128/60/121 116/56/109 100/6/93
f 100/6/93 50/26/45 36/7/32
f 36/7/32 50/26/45 40/24/35
f 84/37/77 76/41/69 74/38/67
f 4/8/2 128/60/121 100/6/93
f 122/58/115 120/68/113 118/59/111
f 26/5/23 4/8/2 100/6/93
f 72/14/65 50/26/45 100/6/93
f 127/11/123 1/8/122 103/21/98
f 121/10/116 123/13/118 125/12/120
f 117/64/112 119/16/114 121/10/116
f 13/68/13 17/56/17 19/57/19
f 113/17/108 115/28/110 111/19/106
f 109/18/104 111/19/106 107/5/102
f 103/21/98 105/22/100 107/5/102
f 99/23/94 71/35/66 73/32/68
f 93/24/88 95/25/90 97/7/92
f 93/24/88 83/26/78 91/27/86
f 89/67/84 91/27/86 87/65/82
f 87/65/82 91/27/86 83/26/78
f 79/30/74 83/26/78 93/24/88
f 73/32/68 75/33/70 77/29/72
f 99/23/94 101/20/96 103/21/98
f 69/34/64 71/35/66 67/15/128
f 65/9/61 41/45/38 63/36/59
f 61/14/57 63/36/59 59/38/127
f 99/23/94 79/30/74 93/24/88
f 53/39/50 55/40/52 51/42/48
f 45/43/42 47/44/44 49/37/46
f 41/45/38 43/46/40 45/43/42
f 41/45/38 33/6/31 39/47/36
f 37/48/126 39/47/36 35/49/33
f 33/6/31 1/8/122 31/51/125
f 29/53/28 31/51/125 27/52/26
f 103/21/98 1/8/122 71/35/66
f 117/64/112 121/10/116 127/11/123
f 13/68/13 15/59/15 17/56/17
f 19/57/19 23/55/22 11/58/11
f 5/60/5 7/61/7 9/62/9
f 1/8/122 3/63/3 5/60/5
f 117/64/112 127/11/123 115/28/110
f 59/38/127 63/36/59 55/40/52
f 107/5/102 111/19/106 115/28/110
f 115/28/110 127/11/123 103/21/98
f 97/7/92 99/23/94 93/24/88
f 23/55/22 25/50/24 11/58/11
f 31/51/125 25/50/24 27/52/26
f 99/23/94 77/29/72 79/30/74
f 39/47/36 33/6/31 35/49/33
f 57/41/54 59/38/127 55/40/52
f 41/45/38 45/43/42 49/37/46
f 11/58/11 25/50/24 9/62/9
f 55/40/52 49/37/46 51/42/48
f 19/57/19 21/54/124 23/55/22
f 1/8/122 25/50/24 31/51/125
f 1/8/122 5/60/5 9/62/9
f 103/21/98 107/5/102 115/28/110
f 99/23/94 73/32/68 77/29/72
f 71/35/66 65/9/61 67/15/128
f 85/66/80 87/65/82 83/26/78
f 63/36/59 41/45/38 55/40/52
f 25/50/24 1/8/122 9/62/9
f 121/10/116 125/12/120 127/11/123
f 71/35/66 99/23/94 103/21/98
f 81/31/76 83/26/78 79/30/74
f 49/37/46 55/40/52 41/45/38
f 13/68/13 19/57/19 11/58/11
f 65/9/61 71/35/66 1/8/122
f 65/9/61 33/6/31 41/45/38
