# Blender v2.72 (sub 0) OBJ File: ''
# www.blender.org
o Cone_Cone.001
v 0.000000 -0.572579 -1.000000
v 0.951057 -0.572579 -0.309017
v 0.587785 -0.572579 0.809017
v -0.587785 -0.572579 0.809017
v -0.951056 -0.572579 -0.309017
v 0.000000 0.841634 0.000000
vt 0.000000 0.000000
vt 1.000000 0.000000
vt 1.000000 1.000000
vt 0.975528 0.654508
vt 0.793893 0.095491
vt 0.206107 0.095492
vt 0.500000 1.000000
vt 0.024472 0.654509
vn -0.825500 0.496600 0.268200
vn 0.510200 0.496600 -0.702200
vn -0.000000 0.496600 0.868000
vn -0.510200 0.496600 -0.702200
vn 0.825500 0.496600 0.268200
vn 0.000000 -1.000000 0.000000
s off
f 4/1/1 6/2/1 5/3/1
f 1/1/2 6/2/2 2/3/2
f 3/1/3 6/2/3 4/3/3
f 5/1/4 6/2/4 1/3/4
f 2/1/5 6/2/5 3/3/5
f 2/4/6 3/5/6 4/6/6
f 1/7/6 2/4/6 5/8/6
f 2/4/6 4/6/6 5/8/6
