# Blender v2.72 (sub 0) OBJ File: ''
# www.blender.org
o Cube_Cube.001
v -1.000000 -0.683789 -1.000000
v 1.000000 -0.683789 -1.000000
v 1.000000 -0.683789 1.000000
v 0.000000 1.200715 0.000000
v -1.000000 -0.683789 1.000000
vt 1.000000 0.000000
vt 1.000000 1.000000
vt 0.000000 1.000000
vt 0.000000 0.000000
vn 0.000000 -1.000000 -0.000000
vn -0.883300 0.468700 0.000000
vn 0.000000 0.468700 -0.883300
vn 0.883300 0.468700 0.000000
vn 0.000000 0.468700 0.883300
s off
f 1/1/1 2/2/1 3/3/1
f 4/4/2 1/1/2 5/2/2
f 2/1/3 1/2/3 4/4/3
f 4/4/4 3/1/4 2/2/4
f 4/4/5 5/1/5 3/2/5
f 5/4/1 1/1/1 3/3/1
